<svg xmlns="http://www.w3.org/2000/svg" viewBox="0 0 1200 480" width="1200" height="480">
  <defs>
    <linearGradient id="bg" x1="0%" y1="0%" x2="100%" y2="100%">
      <stop offset="0%" style="stop-color:#0b2d52"/>
      <stop offset="100%" style="stop-color:#0f3d6e"/>
    </linearGradient>
    <linearGradient id="glow" x1="0%" y1="0%" x2="100%" y2="100%">
      <stop offset="0%" style="stop-color:#38bdf8;stop-opacity:0.25"/>
      <stop offset="100%" style="stop-color:#38bdf8;stop-opacity:0"/>
    </linearGradient>
  </defs>
  <rect width="1200" height="480" fill="url(#bg)"/>
  <circle cx="900" cy="240" r="280" fill="url(#glow)"/>
  <line x1="0" y1="120" x2="1200" y2="120" stroke="white" stroke-opacity="0.04" stroke-width="1"/>
  <line x1="0" y1="240" x2="1200" y2="240" stroke="white" stroke-opacity="0.04" stroke-width="1"/>
  <line x1="0" y1="360" x2="1200" y2="360" stroke="white" stroke-opacity="0.04" stroke-width="1"/>
  <!-- AC condenser -->
  <rect x="800" y="140" width="240" height="220" rx="16" fill="white" fill-opacity="0.06" stroke="white" stroke-opacity="0.15" stroke-width="2"/>
  <circle cx="920" cy="250" r="78" fill="white" fill-opacity="0.04" stroke="white" stroke-opacity="0.12" stroke-width="1"/>
  <ellipse cx="920" cy="202" rx="13" ry="38" fill="white" fill-opacity="0.16" transform="rotate(0 920 250)"/>
  <ellipse cx="920" cy="202" rx="13" ry="38" fill="white" fill-opacity="0.16" transform="rotate(72 920 250)"/>
  <ellipse cx="920" cy="202" rx="13" ry="38" fill="white" fill-opacity="0.16" transform="rotate(144 920 250)"/>
  <ellipse cx="920" cy="202" rx="13" ry="38" fill="white" fill-opacity="0.16" transform="rotate(216 920 250)"/>
  <ellipse cx="920" cy="202" rx="13" ry="38" fill="white" fill-opacity="0.16" transform="rotate(288 920 250)"/>
  <circle cx="920" cy="250" r="14" fill="#0b2d52"/>
  <!-- warm-air wavy lines -->
  <path d="M1055 180 q 20 -18 40 0 q 20 18 40 0" fill="none" stroke="#f97316" stroke-opacity="0.6" stroke-width="6" stroke-linecap="round"/>
  <path d="M1055 220 q 20 -18 40 0 q 20 18 40 0" fill="none" stroke="#f97316" stroke-opacity="0.45" stroke-width="6" stroke-linecap="round"/>
  <path d="M1055 260 q 20 -18 40 0 q 20 18 40 0" fill="none" stroke="#f97316" stroke-opacity="0.3" stroke-width="6" stroke-linecap="round"/>
  <!-- question mark -->
  <text x="1000" y="360" font-family="system-ui, -apple-system, sans-serif" font-size="70" font-weight="800" fill="#f97316" fill-opacity="0.7">?</text>
  <!-- Text -->
  <text x="100" y="170" font-family="system-ui, -apple-system, sans-serif" font-size="52" font-weight="800" fill="white" fill-opacity="0.95">Why Isn't My</text>
  <text x="100" y="232" font-family="system-ui, -apple-system, sans-serif" font-size="52" font-weight="800" fill="#f97316">AC Cooling?</text>
  <text x="100" y="292" font-family="system-ui, -apple-system, sans-serif" font-size="22" fill="white" fill-opacity="0.55">Troubleshooting for Niagara Homes</text>
  <rect x="100" y="332" width="140" height="36" rx="18" fill="#f97316" fill-opacity="0.2" stroke="#f97316" stroke-opacity="0.4" stroke-width="1"/>
  <text x="170" y="355" font-family="system-ui, -apple-system, sans-serif" font-size="13" font-weight="700" fill="#f97316" text-anchor="middle" letter-spacing="1">FIXAIR BLOG</text>
</svg>
