<svg xmlns="http://www.w3.org/2000/svg" viewBox="0 0 1200 480" width="1200" height="480">
  <defs>
    <linearGradient id="bg" x1="0%" y1="0%" x2="100%" y2="100%">
      <stop offset="0%" style="stop-color:#0b2d52"/>
      <stop offset="100%" style="stop-color:#0f3d6e"/>
    </linearGradient>
    <linearGradient id="glow" x1="0%" y1="0%" x2="100%" y2="100%">
      <stop offset="0%" style="stop-color:#38bdf8;stop-opacity:0.25"/>
      <stop offset="100%" style="stop-color:#38bdf8;stop-opacity:0"/>
    </linearGradient>
  </defs>
  <rect width="1200" height="480" fill="url(#bg)"/>
  <circle cx="900" cy="240" r="280" fill="url(#glow)"/>
  <line x1="0" y1="120" x2="1200" y2="120" stroke="white" stroke-opacity="0.04" stroke-width="1"/>
  <line x1="0" y1="240" x2="1200" y2="240" stroke="white" stroke-opacity="0.04" stroke-width="1"/>
  <line x1="0" y1="360" x2="1200" y2="360" stroke="white" stroke-opacity="0.04" stroke-width="1"/>
  <!-- AC condenser -->
  <rect x="800" y="140" width="230" height="220" rx="16" fill="white" fill-opacity="0.06" stroke="white" stroke-opacity="0.15" stroke-width="2"/>
  <rect x="816" y="156" width="198" height="26" rx="4" fill="white" fill-opacity="0.08"/>
  <text x="836" y="176" font-family="system-ui" font-size="16" fill="#38bdf8" fill-opacity="0.8">❄</text>
  <circle cx="915" cy="258" r="66" fill="white" fill-opacity="0.04" stroke="white" stroke-opacity="0.12" stroke-width="1"/>
  <ellipse cx="915" cy="218" rx="11" ry="32" fill="white" fill-opacity="0.16" transform="rotate(0 915 258)"/>
  <ellipse cx="915" cy="218" rx="11" ry="32" fill="white" fill-opacity="0.16" transform="rotate(90 915 258)"/>
  <ellipse cx="915" cy="218" rx="11" ry="32" fill="white" fill-opacity="0.16" transform="rotate(180 915 258)"/>
  <ellipse cx="915" cy="218" rx="11" ry="32" fill="white" fill-opacity="0.16" transform="rotate(270 915 258)"/>
  <circle cx="915" cy="258" r="12" fill="#0b2d52"/>
  <rect x="816" y="340" width="198" height="8" rx="4" fill="white" fill-opacity="0.12"/>
  <!-- screwdriver -->
  <g transform="translate(1055,150) rotate(35)">
    <rect x="-9" y="40" width="18" height="120" rx="6" fill="#38bdf8" fill-opacity="0.5"/>
    <rect x="-14" y="0" width="28" height="46" rx="10" fill="#f97316" fill-opacity="0.6"/>
    <path d="M-5 160 l5 16 l5 -16 z" fill="#38bdf8" fill-opacity="0.6"/>
  </g>
  <!-- Text -->
  <text x="100" y="170" font-family="system-ui, -apple-system, sans-serif" font-size="52" font-weight="800" fill="white" fill-opacity="0.95">AC Repair &amp; Install</text>
  <text x="100" y="232" font-family="system-ui, -apple-system, sans-serif" font-size="52" font-weight="800" fill="#f97316">Welland</text>
  <text x="100" y="292" font-family="system-ui, -apple-system, sans-serif" font-size="22" fill="white" fill-opacity="0.55">Cost, Sizing &amp; What to Expect</text>
  <rect x="100" y="332" width="140" height="36" rx="18" fill="#f97316" fill-opacity="0.2" stroke="#f97316" stroke-opacity="0.4" stroke-width="1"/>
  <text x="170" y="355" font-family="system-ui, -apple-system, sans-serif" font-size="13" font-weight="700" fill="#f97316" text-anchor="middle" letter-spacing="1">FIXAIR BLOG</text>
</svg>
