<svg xmlns="http://www.w3.org/2000/svg" viewBox="0 0 1200 480" width="1200" height="480">
  <defs>
    <linearGradient id="bg" x1="0%" y1="0%" x2="100%" y2="100%">
      <stop offset="0%" style="stop-color:#0b2d52"/>
      <stop offset="100%" style="stop-color:#0f3d6e"/>
    </linearGradient>
    <linearGradient id="glow" x1="0%" y1="0%" x2="100%" y2="100%">
      <stop offset="0%" style="stop-color:#f97316;stop-opacity:0.22"/>
      <stop offset="100%" style="stop-color:#f97316;stop-opacity:0"/>
    </linearGradient>
  </defs>
  <rect width="1200" height="480" fill="url(#bg)"/>
  <circle cx="920" cy="250" r="260" fill="url(#glow)"/>
  <line x1="0" y1="120" x2="1200" y2="120" stroke="white" stroke-opacity="0.04" stroke-width="1"/>
  <line x1="0" y1="240" x2="1200" y2="240" stroke="white" stroke-opacity="0.04" stroke-width="1"/>
  <line x1="0" y1="360" x2="1200" y2="360" stroke="white" stroke-opacity="0.04" stroke-width="1"/>
  <!-- Furnace cabinet -->
  <rect x="810" y="110" width="210" height="270" rx="14" fill="white" fill-opacity="0.06" stroke="white" stroke-opacity="0.15" stroke-width="2"/>
  <rect x="828" y="128" width="174" height="52" rx="6" fill="white" fill-opacity="0.08"/>
  <circle cx="850" cy="154" r="7" fill="#38bdf8" fill-opacity="0.7"/>
  <circle cx="874" cy="154" r="7" fill="white" fill-opacity="0.2"/>
  <rect x="828" y="196" width="174" height="168" rx="8" fill="#0b2d52"/>
  <!-- flames -->
  <path d="M915 340 c-24 0-44-20-44-44 0-30 30-40 22-70 18 11 22 30 22 40 8-11 6-26 4-36 22 15 40 40 40 66 0 24-20 44-44 44z" fill="#f97316" fill-opacity="0.55"/>
  <path d="M915 340 c-13 0-24-11-24-24 0-16 15-22 12-38 10 6 13 18 12 27 5-6 4-14 3-20 12 8 21 22 21 36 0 13-11 19-36 19z" fill="#fbbf24" fill-opacity="0.55"/>
  <!-- Text -->
  <text x="100" y="170" font-family="system-ui, -apple-system, sans-serif" font-size="52" font-weight="800" fill="white" fill-opacity="0.95">Furnace Repair</text>
  <text x="100" y="232" font-family="system-ui, -apple-system, sans-serif" font-size="52" font-weight="800" fill="#f97316">Wainfleet</text>
  <text x="100" y="292" font-family="system-ui, -apple-system, sans-serif" font-size="22" fill="white" fill-opacity="0.55">Heating Advice for Rural Niagara</text>
  <rect x="100" y="332" width="140" height="36" rx="18" fill="#f97316" fill-opacity="0.2" stroke="#f97316" stroke-opacity="0.4" stroke-width="1"/>
  <text x="170" y="355" font-family="system-ui, -apple-system, sans-serif" font-size="13" font-weight="700" fill="#f97316" text-anchor="middle" letter-spacing="1">FIXAIR BLOG</text>
</svg>
