<svg xmlns="http://www.w3.org/2000/svg" viewBox="0 0 1200 480" width="1200" height="480">
  <defs>
    <linearGradient id="bg" x1="0%" y1="0%" x2="100%" y2="100%">
      <stop offset="0%" style="stop-color:#0b2d52"/>
      <stop offset="100%" style="stop-color:#0f3d6e"/>
    </linearGradient>
    <linearGradient id="glow" x1="0%" y1="0%" x2="100%" y2="100%">
      <stop offset="0%" style="stop-color:#22c55e;stop-opacity:0.22"/>
      <stop offset="100%" style="stop-color:#22c55e;stop-opacity:0"/>
    </linearGradient>
  </defs>
  <rect width="1200" height="480" fill="url(#bg)"/>
  <circle cx="905" cy="245" r="250" fill="url(#glow)"/>
  <line x1="0" y1="120" x2="1200" y2="120" stroke="white" stroke-opacity="0.04" stroke-width="1"/>
  <line x1="0" y1="240" x2="1200" y2="240" stroke="white" stroke-opacity="0.04" stroke-width="1"/>
  <line x1="0" y1="360" x2="1200" y2="360" stroke="white" stroke-opacity="0.04" stroke-width="1"/>
  <!-- Heat pump unit -->
  <rect x="800" y="170" width="220" height="170" rx="14" fill="white" fill-opacity="0.06" stroke="white" stroke-opacity="0.15" stroke-width="2"/>
  <circle cx="890" cy="255" r="58" fill="white" fill-opacity="0.04" stroke="white" stroke-opacity="0.12" stroke-width="1"/>
  <ellipse cx="890" cy="220" rx="10" ry="28" fill="white" fill-opacity="0.16" transform="rotate(0 890 255)"/>
  <ellipse cx="890" cy="220" rx="10" ry="28" fill="white" fill-opacity="0.16" transform="rotate(72 890 255)"/>
  <ellipse cx="890" cy="220" rx="10" ry="28" fill="white" fill-opacity="0.16" transform="rotate(144 890 255)"/>
  <ellipse cx="890" cy="220" rx="10" ry="28" fill="white" fill-opacity="0.16" transform="rotate(216 890 255)"/>
  <ellipse cx="890" cy="220" rx="10" ry="28" fill="white" fill-opacity="0.16" transform="rotate(288 890 255)"/>
  <circle cx="890" cy="255" r="11" fill="#0b2d52"/>
  <rect x="960" y="195" width="44" height="10" rx="5" fill="white" fill-opacity="0.12"/>
  <rect x="960" y="215" width="44" height="10" rx="5" fill="white" fill-opacity="0.12"/>
  <!-- efficiency up-arrows -->
  <g stroke="#38bdf8" stroke-opacity="0.6" stroke-width="7" stroke-linecap="round" fill="none">
    <path d="M980 330 l0 -38 M968 306 l12 -14 l12 14"/>
  </g>
  <!-- leaf -->
  <g transform="translate(1050,320)">
    <path d="M0 0 C 0 -55 48 -80 92 -78 C 92 -30 52 4 0 0 Z" fill="#22c55e" fill-opacity="0.55"/>
    <path d="M8 -6 C 34 -30 62 -50 84 -66" stroke="#0b2d52" stroke-opacity="0.5" stroke-width="4" fill="none"/>
  </g>
  <!-- Text -->
  <text x="100" y="170" font-family="system-ui, -apple-system, sans-serif" font-size="52" font-weight="800" fill="white" fill-opacity="0.95">Heat Pumps</text>
  <text x="100" y="232" font-family="system-ui, -apple-system, sans-serif" font-size="52" font-weight="800" fill="#f97316">&amp; Rebates</text>
  <text x="100" y="292" font-family="system-ui, -apple-system, sans-serif" font-size="22" fill="white" fill-opacity="0.55">What Niagara Homeowners Should Know</text>
  <rect x="100" y="332" width="140" height="36" rx="18" fill="#f97316" fill-opacity="0.2" stroke="#f97316" stroke-opacity="0.4" stroke-width="1"/>
  <text x="170" y="355" font-family="system-ui, -apple-system, sans-serif" font-size="13" font-weight="700" fill="#f97316" text-anchor="middle" letter-spacing="1">FIXAIR BLOG</text>
</svg>
